HIERARCHY
ROOT joint_0
{
	OFFSET 0.000000 0.000000 0.000000
	CHANNELS 6 Xposition Yposition Zposition Zrotation Yrotation Xrotation 
	JOINT joint_1
	{
		OFFSET -0.613770 -1.125488 108.300049
		CHANNELS 3 Zrotation Yrotation Xrotation
		JOINT joint_2
		{
			OFFSET -10.925537 -0.900513 98.259033
			CHANNELS 3 Zrotation Yrotation Xrotation
			JOINT joint_3
			{
				OFFSET -11.287842 0.313599 98.110962
				CHANNELS 3 Zrotation Yrotation Xrotation
				JOINT joint_4
				{
					OFFSET -2.124268 2.484680 136.491943
					CHANNELS 3 Zrotation Yrotation Xrotation
					JOINT joint_5
					{
						OFFSET 16.640869 1.801270 81.862061
						CHANNELS 3 Zrotation Yrotation Xrotation
						End Site
						{
							OFFSET 0.000000 0.000000 0.000000
						}
					}
				}
				JOINT joint_6
				{
					OFFSET 0.447998 -28.248108 77.258057
					CHANNELS 3 Zrotation Yrotation Xrotation
					JOINT joint_7
					{
						OFFSET 7.918701 -130.256348 -24.086060
						CHANNELS 3 Zrotation Yrotation Xrotation
						JOINT joint_8
						{
							OFFSET 62.431885 -29.384277 -258.572021
							CHANNELS 3 Zrotation Yrotation Xrotation
							JOINT joint_9
							{
								OFFSET 53.743164 -21.907532 -238.024963
								CHANNELS 3 Zrotation Yrotation Xrotation
								End Site
								{
									OFFSET 0.000000 0.000000 0.000000
								}
							}
						}
					}
				}
				JOINT joint_10
				{
					OFFSET -2.846924 31.052063 76.130981
					CHANNELS 3 Zrotation Yrotation Xrotation
					JOINT joint_11
					{
						OFFSET 9.073730 131.055603 -18.752930
						CHANNELS 3 Zrotation Yrotation Xrotation
						JOINT joint_12
						{
							OFFSET 52.981201 29.883301 -260.613037
							CHANNELS 3 Zrotation Yrotation Xrotation
							JOINT joint_13
							{
								OFFSET 62.237793 15.935547 -236.423035
								CHANNELS 3 Zrotation Yrotation Xrotation
								End Site
								{
									OFFSET 0.000000 0.000000 0.000000
								}
							}
						}
					}
				}
			}
		}
	}
	JOINT joint_14
	{
		OFFSET 22.046143 -72.816772 -98.122925
		CHANNELS 3 Zrotation Yrotation Xrotation
		JOINT joint_15
		{
			OFFSET -23.673828 -54.692932 -469.927032
			CHANNELS 3 Zrotation Yrotation Xrotation
			JOINT joint_16
			{
				OFFSET -34.875244 -46.505249 -395.890999
				CHANNELS 3 Zrotation Yrotation Xrotation
				JOINT joint_17
				{
					OFFSET 168.486328 14.224182 -74.182999
					CHANNELS 3 Zrotation Yrotation Xrotation
					End Site
					{
						OFFSET 0.000000 0.000000 0.000000
					}
				}
			}
		}
	}
	JOINT joint_18
	{
		OFFSET -1.731934 82.408569 -92.846924
		CHANNELS 3 Zrotation Yrotation Xrotation
		JOINT joint_19
		{
			OFFSET -6.908936 32.203369 -472.535034
			CHANNELS 3 Zrotation Yrotation Xrotation
			JOINT joint_20
			{
				OFFSET -13.963135 23.196533 -399.207993
				CHANNELS 3 Zrotation Yrotation Xrotation
				JOINT joint_21
				{
					OFFSET 168.417725 19.834229 -73.041004
					CHANNELS 3 Zrotation Yrotation Xrotation
					End Site
					{
						OFFSET 0.000000 0.000000 0.000000
					}
				}
			}
		}
	}
}
MOTION
Frames: 6
Frame Time: 0.016667
-2600.304199 985.852783 1059.097046 -0.958424 3.318298 -2.575003 1.832138 -0.312536 3.344814 1.404439 -0.023228 -0.731709 1.536557 -0.023786 0.377396 0.012566 0.593904 -0.132212 0.000000 0.000000 0.000000 1.631071 0.686051 -1.971859 0.304287 1.180819 2.177890 0.572441 -2.154345 1.693607 0.000000 0.000000 0.000000 3.397626 0.063077 -2.097495 -0.460092 -0.539743 -1.354301 -0.322723 0.774252 -1.415312 0.000000 0.000000 0.000000 1.217909 -4.656083 6.805039 1.083126 -0.173932 0.174991 0.823132 2.051097 0.185222 0.000000 0.000000 0.000000 1.878165 -2.027743 2.315872 2.200878 1.731422 -1.146174 1.862811 -2.783035 1.132764 0.000000 0.000000 0.000000 
-2600.343506 985.876709 1059.010986 -1.075550 3.420637 -2.560335 1.855015 -0.436938 3.331853 1.430291 -0.074473 -0.729195 1.561714 0.003371 0.377474 0.009283 0.718642 -0.131716 0.000000 0.000000 0.000000 1.587506 0.716585 -1.973054 0.303649 1.203923 2.186414 0.574117 -2.157548 1.699577 0.000000 0.000000 0.000000 3.485728 0.093250 -2.096148 -0.461443 -0.521661 -1.362958 -0.325763 0.785555 -1.429460 0.000000 0.000000 0.000000 1.269381 -4.789682 6.765952 1.114412 -0.163731 0.202295 0.855373 2.065078 0.198075 0.000000 0.000000 0.000000 1.909964 -2.138714 2.294876 2.241814 1.747579 -1.162913 1.901379 -2.788129 1.150035 0.000000 0.000000 0.000000 
-2600.337646 985.928345 1058.900024 -1.192327 3.524884 -2.542419 1.874986 -0.561949 3.320020 1.452665 -0.144276 -0.729245 1.583918 0.044003 0.380902 0.005683 0.875366 -0.133997 0.000000 0.000000 0.000000 1.532249 0.745678 -1.977237 0.304047 1.223514 2.196563 0.575285 -2.154844 1.705466 0.000000 0.000000 0.000000 3.592746 0.126319 -2.093722 -0.464231 -0.503013 -1.378658 -0.328638 0.798084 -1.443302 0.000000 0.000000 0.000000 1.321320 -4.924327 6.714941 1.144117 -0.147977 0.239851 0.889218 2.063837 0.212921 0.000000 0.000000 0.000000 1.941640 -2.251234 2.266869 2.282855 1.768367 -1.176586 1.939790 -2.795036 1.167450 0.000000 0.000000 0.000000 
-2600.417969 986.065186 1058.765015 -0.954601 3.268384 -2.512785 1.790799 -0.291005 3.335941 1.360917 -0.206085 -0.739051 1.493802 0.118880 0.390705 0.010180 0.915978 -0.161034 0.000000 0.000000 0.000000 1.531475 0.723397 -1.976996 0.300589 1.200203 2.169932 0.577020 -2.150534 1.714893 0.000000 0.000000 0.000000 3.571450 0.113174 -2.113782 -0.464700 -0.514472 -1.376626 -0.326195 0.804455 -1.435863 0.000000 0.000000 0.000000 1.228380 -4.638838 6.666968 1.073487 -0.098443 0.272656 0.841436 1.951089 0.201720 0.000000 0.000000 0.000000 1.879901 -2.040239 2.249900 2.211488 1.861988 -1.178328 1.861747 -2.839610 1.139000 0.000000 0.000000 0.000000 
-2600.877930 986.258545 1058.588989 -0.000946 2.237952 -2.501559 1.517467 0.833057 3.432734 1.060356 -0.251052 -0.759309 1.197600 0.261187 0.415323 0.031448 0.696971 -0.237130 0.000000 0.000000 0.000000 1.722206 0.598835 -2.002619 0.290097 1.109560 2.083548 0.578292 -2.154142 1.720104 0.000000 0.000000 0.000000 3.387433 -0.009961 -2.174689 -0.465763 -0.618524 -1.329857 -0.337687 0.761497 -1.467756 0.000000 0.000000 0.000000 0.836536 -3.465234 6.669943 0.802448 0.009000 0.296261 0.626201 1.647864 0.133694 0.000000 0.000000 0.000000 1.628196 -1.141131 2.300318 1.911212 2.104285 -1.153291 1.547281 -2.952644 1.016454 0.000000 0.000000 0.000000 
-2601.422852 986.536316 1058.389038 1.310838 0.834182 -2.502961 1.131253 2.381433 3.517879 0.652533 -0.297397 -0.739022 0.789326 0.423607 0.443059 0.060825 0.354752 -0.338833 0.000000 0.000000 0.000000 1.961601 0.425588 -2.052870 0.281527 0.980144 1.988271 0.579724 -2.155657 1.727498 0.000000 0.000000 0.000000 3.081102 -0.177290 -2.229762 -0.469997 -0.748890 -1.292707 -0.343349 0.711915 -1.476281 0.000000 0.000000 0.000000 0.297782 -1.856257 6.664609 0.431004 0.144264 0.329761 0.325935 1.271982 0.034566 0.000000 0.000000 0.000000 1.280730 0.096548 2.360406 1.497568 2.415150 -1.108543 1.117006 -3.093318 0.847050 0.000000 0.000000 0.000000 
